<svg xmlns="http://www.w3.org/2000/svg" width="1200" height="720" viewBox="0 0 1200 720">
  <rect width="1200" height="720" fill="#111827"/><rect width="82" height="720" fill="#172033"/><text x="25" y="48" fill="#25b5a6" font-size="30" font-family="Arial" font-weight="700">✦</text>
  <text x="18" y="98" fill="#94a3b8" font-size="14" font-family="Arial">⌂ Inicio</text><rect x="8" y="122" width="66" height="45" rx="5" fill="#31466b"/><text x="18" y="150" fill="#fff" font-size="14" font-family="Arial">▦ Dags</text>
  <text x="112" y="52" fill="#fff" font-size="25" font-family="Arial" font-weight="700">brujula_inmobiliaria_pipeline</text><rect x="1016" y="27" width="118" height="42" rx="7" fill="#2563eb"/><text x="1043" y="54" fill="#fff" font-size="15" font-family="Arial">▷ Trigger</text>
  <rect x="285" y="108" width="660" height="520" rx="10" fill="#1f2937" stroke="#64748b" stroke-width="2"/>
  <text x="330" y="158" fill="#fff" font-size="24" font-family="Arial" font-weight="700">Trigger DAG</text><text x="330" y="188" fill="#94a3b8" font-size="14" font-family="Arial">Configurar ejecución manual</text>
  <g font-family="Arial"><text x="330" y="235" fill="#cbd5e1" font-size="15">Fecha lógica</text><rect x="330" y="248" width="570" height="44" rx="5" fill="#111827" stroke="#475569"/><text x="350" y="276" fill="#e2e8f0" font-size="14">2026-09-09 00:00:00</text>
  <text x="330" y="332" fill="#cbd5e1" font-size="15">Run Parameters</text><text x="330" y="365" fill="#94a3b8" font-size="14">max_paginas</text><rect x="530" y="346" width="370" height="40" rx="5" fill="#111827" stroke="#475569"/><text x="550" y="372" fill="#e2e8f0" font-size="14">1</text>
  <text x="330" y="430" fill="#94a3b8" font-size="14">fuentes</text><rect x="530" y="411" width="370" height="40" rx="5" fill="#111827" stroke="#475569"/><text x="550" y="437" fill="#e2e8f0" font-size="14">["inmoclick"]</text>
  <text x="330" y="495" fill="#94a3b8" font-size="14">fecha</text><rect x="530" y="476" width="370" height="40" rx="5" fill="#111827" stroke="#475569"/><text x="550" y="502" fill="#e2e8f0" font-size="14">20260909</text>
  <rect x="760" y="555" width="140" height="42" rx="7" fill="#2563eb"/><text x="792" y="581" fill="#fff" font-size="15">Trigger</text></g>
</svg>
